<svg xmlns="http://www.w3.org/2000/svg" xmlns:xlink="http://www.w3.org/1999/xlink" version="1.1" x="0px" y="0px" viewBox="0 0 40 50" enable-background="new 0 0 40 40" xml:space="preserve"><path fill-rule="evenodd" clip-rule="evenodd" d="M19.8,16.6c-1.8,0-3.3,1.5-3.3,3.3c0,1.8,1.5,3.3,3.3,3.3  c1.8,0,3.3-1.5,3.3-3.3C23.1,18.1,21.6,16.6,19.8,16.6z M19.8,22.1c-1.2,0-2.2-1-2.2-2.2c0-0.3,0.2-0.5,0.5-0.5  c0.3,0,0.5,0.2,0.5,0.5c0,0.6,0.5,1.2,1.2,1.2c0.3,0,0.5,0.2,0.5,0.5C20.3,21.9,20,22.1,19.8,22.1z M19.5,12c-8,0-14,8-14,8  s6,8,14,8c8,0,15-8,15-8S27.5,12,19.5,12z M8.4,20c0,0,2-1.7,4.8-3.1c-0.4,0.9-0.7,2-0.7,3c0,1.7,0.6,3.3,1.6,4.5  C10.8,22.7,8.4,20,8.4,20z M19.8,25.3c-3,0-5.4-2.4-5.4-5.4c0-1.8,0.9-3.3,2.2-4.3c1-0.3,2-0.4,3.1-0.4c1.2,0,2.3,0.2,3.4,0.5  c1.3,1,2.1,2.5,2.1,4.3C25.2,22.9,22.7,25.3,19.8,25.3z M25.7,24c0.8-1.2,1.3-2.6,1.3-4.1c0-1.1-0.3-2.1-0.7-3.1  c3,1.4,5.3,3.1,5.3,3.1S29.1,22.3,25.7,24z"/><text x="0" y="55" fill="#000000" font-size="5px" font-weight="bold" font-family="'Helvetica Neue', Helvetica, Arial-Unicode, Arial, Sans-serif">Created by Hello Many</text><text x="0" y="60" fill="#000000" font-size="5px" font-weight="bold" font-family="'Helvetica Neue', Helvetica, Arial-Unicode, Arial, Sans-serif">from the Noun Project</text></svg>