<svg xmlns="http://www.w3.org/2000/svg" xmlns:xlink="http://www.w3.org/1999/xlink" version="1.1" x="0px" y="0px" viewBox="0 0 40 50" enable-background="new 0 0 40 40" xml:space="preserve"><path fill-rule="evenodd" clip-rule="evenodd" d="M22.9,20.5l-2,2C21.8,22.2,22.5,21.5,22.9,20.5z M16.4,19.4  c0,0.2,0,0.5,0.1,0.7l3.9-3.9c-0.2,0-0.4-0.1-0.7-0.1C17.9,16.1,16.4,17.6,16.4,19.4z M13.2,23.4c-2.8-1.7-4.8-3.9-4.8-3.9  s2-1.7,4.8-3.1c-0.4,0.9-0.7,2-0.7,3c0,1.3,0.4,2.6,1,3.7l1.4-1.4c-0.3-0.7-0.5-1.5-0.5-2.3c0-1.8,0.9-3.3,2.2-4.3  c1-0.3,2-0.4,3.1-0.4c0.7,0,1.4,0.1,2.1,0.2l2.5-2.5c-1.5-0.5-3.1-0.9-4.7-0.9c-8,0-14,8-14,8s2.4,3.1,6.1,5.5L13.2,23.4z   M26.3,16.4c0.1,0.2,0.1,0.3,0.2,0.5l0.3-0.3C26.7,16.5,26.5,16.4,26.3,16.4z M28.8,14.7l-1.9,1.9c2.8,1.3,4.8,2.9,4.8,2.9  s-2.5,2.3-5.9,4c0.8-1.2,1.3-2.6,1.3-4.1c0-0.9-0.2-1.7-0.5-2.5L25,18.4c0.1,0.3,0.1,0.7,0.1,1c0,3-2.4,5.4-5.4,5.4  c-0.4,0-0.7,0-1.1-0.1l-2.4,2.4c1,0.3,2.1,0.4,3.2,0.4c8,0,15-8,15-8S32.2,16.9,28.8,14.7z M28.8,9.8l-19,19l1.4,1.4l19-19L28.8,9.8  z"/><text x="0" y="55" fill="#000000" font-size="5px" font-weight="bold" font-family="'Helvetica Neue', Helvetica, Arial-Unicode, Arial, Sans-serif">Created by Hello Many</text><text x="0" y="60" fill="#000000" font-size="5px" font-weight="bold" font-family="'Helvetica Neue', Helvetica, Arial-Unicode, Arial, Sans-serif">from the Noun Project</text></svg>